<?xml version="1.0" standalone="no"?>
<!DOCTYPE svg PUBLIC "-//W3C//DTD SVG 20010904//EN"
 "http://www.w3.org/TR/2001/REC-SVG-20010904/DTD/svg10.dtd">
<svg version="1.0" xmlns="http://www.w3.org/2000/svg"
 width="400.000000pt" height="400.000000pt" viewBox="0 0 400.000000 400.000000"
 preserveAspectRatio="xMidYMid meet">

<g transform="translate(0.000000,400.000000) scale(0.100000,-0.100000)"
fill="#000000" stroke="none">
<path d="M0 2000 l0 -2000 2000 0 2000 0 0 2000 0 2000 -2000 0 -2000 0 0
-2000z m2937 1163 c173 -69 287 -268 256 -448 -49 -287 -337 -438 -600 -315
-81 37 -151 108 -194 195 -32 66 -34 75 -34 180 0 103 2 114 32 177 56 118
174 210 304 238 66 13 162 3 236 -27z m-887 -63 c11 -11 20 -33 20 -50 0 -17
-9 -39 -20 -50 -18 -18 -34 -20 -142 -20 -202 -1 -438 -18 -498 -36 -163 -49
-297 -176 -351 -331 -33 -97 -41 -254 -36 -700 5 -461 8 -491 70 -607 65 -125
211 -236 352 -267 46 -11 176 -14 560 -14 447 0 507 2 564 18 197 54 344 207
386 402 11 47 18 156 22 329 6 242 7 259 26 277 27 25 72 24 98 -2 21 -21 21
-27 17 -308 -4 -252 -8 -295 -26 -364 -33 -120 -75 -190 -177 -293 -74 -75
-105 -99 -175 -133 -134 -66 -181 -71 -620 -78 -407 -6 -640 4 -745 32 -243
64 -436 279 -482 535 -15 81 -17 164 -17 555 -1 482 4 547 45 673 45 136 183
295 317 365 136 71 216 84 555 86 225 1 238 0 257 -19z"/>
</g>
</svg>
